<?xml version="1.0" encoding="UTF-8" standalone="no"?>
<!DOCTYPE svg PUBLIC "-//W3C//DTD SVG 1.1//EN" "http://www.w3.org/Graphics/SVG/1.1/DTD/svg11.dtd">
<svg xmlns="http://www.w3.org/2000/svg" version="1.1" viewBox="0.00 0.00 263.00 106.00">
<circle fill="#ffffff" cx="106.43" cy="11.66" r="1.92"/>
<circle fill="#ffffff" cx="187.44" cy="11.65" r="1.92"/>
<rect fill="#ffffff" x="170.13" y="10.41" width="2.86" height="23.58" rx="0.27"/>
<path fill="#ffffff" d="
  M 33.65 25.32
  L 38.49 33.35
  Q 38.87 33.98 38.14 33.99
  L 35.98 34.00
  Q 35.45 34.00 35.18 33.54
  L 30.42 25.33
  A 1.04 1.04 0.0 0 0 29.52 24.81
  L 27.00 24.82
  Q 26.57 24.82 26.58 25.25
  L 26.61 33.31
  Q 26.61 33.99 25.94 33.99
  L 24.29 34.00
  Q 23.70 34.00 23.70 33.41
  L 23.68 12.27
  Q 23.68 11.81 24.14 11.80
  C 29.92 11.65 38.27 10.53 38.54 18.01
  Q 38.70 22.62 33.90 24.58
  Q 33.34 24.81 33.65 25.32
  Z
  M 26.59 14.49
  L 26.59 22.09
  A 0.43 0.43 0.0 0 0 27.02 22.52
  L 31.57 22.52
  A 4.12 4.11 0.0 0 0 35.69 18.41
  L 35.69 18.17
  A 4.12 4.11 -0.0 0 0 31.57 14.06
  L 27.02 14.06
  A 0.43 0.43 0.0 0 0 26.59 14.49
  Z"
/>
<path fill="#ffffff" d="
  M 121.51 16.01
  L 121.50 12.63
  Q 121.50 12.01 122.12 12.01
  L 123.79 12.00
  Q 124.33 12.00 124.33 12.54
  L 124.30 15.90
  Q 124.30 16.50 124.90 16.50
  L 128.24 16.50
  Q 128.73 16.50 128.78 16.99
  L 128.90 18.20
  A 0.60 0.60 0.0 0 1 128.30 18.86
  L 125.02 18.82
  Q 124.41 18.81 124.39 19.42
  Q 124.15 27.13 124.30 29.30
  Q 124.52 32.42 128.04 31.33
  A 0.53 0.53 0.0 0 1 128.72 31.76
  L 128.94 33.20
  Q 129.00 33.62 128.59 33.72
  Q 123.66 34.93 122.10 31.82
  C 120.84 29.32 121.57 22.67 121.48 19.23
  Q 121.46 18.75 120.98 18.78
  L 119.75 18.87
  Q 119.07 18.93 119.11 18.25
  L 119.18 17.02
  Q 119.21 16.50 119.74 16.50
  L 120.99 16.52
  Q 121.51 16.52 121.51 16.01
  Z"
/>
<path fill="#ffffff" d="
  M 53.13 26.96
  C 53.74 32.05 61.26 34.07 63.49 29.04
  A 0.73 0.73 0.0 0 1 64.17 28.61
  L 65.99 28.67
  Q 66.59 28.68 66.45 29.27
  Q 65.89 31.52 64.11 32.61
  C 56.07 37.54 47.82 30.74 50.57 22.03
  C 53.59 12.42 68.59 15.21 66.92 25.83
  Q 66.84 26.34 66.32 26.34
  L 53.71 26.31
  Q 53.06 26.31 53.13 26.96
  Z
  M 53.30 24.00
  L 64.06 24.00
  A 0.15 0.15 0.0 0 0 64.21 23.85
  L 64.21 23.75
  A 5.41 5.13 -0.0 0 0 58.80 18.62
  L 58.56 18.62
  A 5.41 5.13 0.0 0 0 53.15 23.75
  L 53.15 23.85
  A 0.15 0.15 0.0 0 0 53.30 24.00
  Z"
/>
<path fill="#ffffff" d="
  M 154.26 19.00
  L 154.25 17.13
  Q 154.25 16.51 154.87 16.51
  L 156.40 16.50
  Q 157.05 16.50 157.05 17.15
  L 157.06 33.35
  Q 157.06 34.01 156.40 34.00
  L 154.81 33.98
  Q 154.15 33.97 154.21 33.31
  L 154.35 31.74
  A 0.38 0.38 0.0 0 0 153.69 31.46
  C 149.01 36.89 141.11 34.08 139.67 27.51
  C 137.70 18.58 147.28 11.93 153.96 19.12
  Q 154.26 19.44 154.26 19.00
  Z
  M 148.2454 31.8199
  A 6.60 6.04 90.3 0 0 154.3199 25.2516
  A 6.60 6.04 90.3 0 0 148.3146 18.6201
  A 6.60 6.04 90.3 0 0 142.2401 25.1884
  A 6.60 6.04 90.3 0 0 148.2454 31.8199
  Z"
/>
<path fill="#ffffff" d="
  M 226.36 26.79
  C 226.68 32.47 233.81 33.53 236.77 29.09
  Q 237.01 28.73 237.45 28.71
  L 239.46 28.62
  Q 239.97 28.59 239.80 29.07
  C 237.65 35.08 229.51 35.91 225.76 31.72
  C 220.63 25.98 224.08 15.06 232.66 16.13
  C 237.82 16.78 241.00 20.54 240.27 25.87
  A 0.52 0.51 -86.2 0 1 239.76 26.32
  L 226.80 26.33
  Q 226.34 26.33 226.36 26.79
  Z
  M 226.50 24.00
  L 237.34 23.98
  A 0.13 0.13 0.0 0 0 237.47 23.85
  L 237.47 23.79
  A 5.45 5.19 -0.1 0 0 232.02 18.61
  L 231.82 18.61
  A 5.45 5.19 -0.1 0 0 226.37 23.81
  L 226.37 23.87
  A 0.13 0.13 0.0 0 0 226.50 24.00
  Z"
/>
<path fill="#ffffff" d="
  M 85.27 30.71
  A 0.26 0.26 0.0 0 0 85.76 30.71
  L 90.81 17.00
  Q 90.99 16.51 91.52 16.51
  L 93.34 16.50
  A 0.45 0.44 -79.8 0 1 93.76 17.11
  L 87.55 33.01
  A 2.21 2.20 -45.1 0 1 83.44 33.02
  L 77.18 17.05
  Q 76.96 16.49 77.55 16.50
  L 79.38 16.51
  Q 80.04 16.51 80.27 17.13
  L 85.27 30.71
  Z"
/>
<rect fill="#ffffff" x="104.89" y="16.51" width="2.98" height="17.48" rx="0.36"/>
<rect fill="#ffffff" x="-1.43" y="-8.74" transform="translate(187.43,25.25) rotate(0.1)" width="2.86" height="17.48" rx="0.34"/>
<path fill="#ffffff" d="
  M 204.74 31.68
  L 212.09 31.67
  Q 212.51 31.67 212.54 32.09
  L 212.65 33.40
  A 0.55 0.55 0.0 0 1 212.10 34.00
  L 201.72 34.00
  A 1.38 1.38 0.0 0 1 200.57 31.86
  L 208.85 19.39
  A 0.39 0.39 0.0 0 0 208.52 18.79
  L 201.37 18.88
  Q 200.74 18.88 200.75 18.25
  L 200.76 17.12
  Q 200.77 16.50 201.38 16.50
  L 211.98 16.50
  Q 212.44 16.50 212.48 16.97
  C 212.75 20.27 206.28 27.90 204.43 31.15
  Q 204.13 31.69 204.74 31.68
  Z"
/>
<path fill="#ffffff" d="
  M 168.45 57.04
  C 169.38 53.72 167.29 48.87 163.19 50.09
  A 1.21 1.18 -80.6 0 0 162.55 50.56
  Q 162.03 51.32 161.06 51.23
  A 0.35 0.35 0.0 0 1 160.81 50.66
  C 167.24 42.48 176.37 52.59 174.40 59.89
  Q 173.82 62.06 171.85 64.91
  C 167.80 70.76 159.42 71.84 152.51 71.57
  Q 136.33 70.95 124.75 62.42
  Q 124.32 62.11 123.91 62.44
  C 113.94 70.60 94.07 74.76 82.23 68.83
  Q 76.43 65.92 75.21 58.74
  C 74.80 56.33 75.56 54.45 76.73 52.23
  Q 79.95 46.08 87.26 48.91
  Q 88.16 49.26 88.10 50.10
  A 0.45 0.44 -75.3 0 1 87.47 50.47
  Q 85.51 49.56 83.42 50.17
  Q 82.84 50.34 82.47 50.81
  Q 80.00 53.93 81.62 57.67
  A 1.43 1.40 -1.3 0 0 82.43 58.43
  Q 85.35 59.55 88.24 57.98
  Q 96.12 53.68 104.08 49.51
  C 111.23 45.76 117.44 45.44 124.00 50.10
  Q 124.43 50.41 124.88 50.13
  C 138.42 41.68 148.08 50.68 159.46 57.73
  Q 163.86 60.45 167.91 57.78
  Q 168.32 57.51 168.45 57.04
  Z"
/>
<rect fill="#ffffff" x="-0.66" y="-5.52" transform="translate(160.09,88.43) rotate(0.1)" width="1.32" height="11.04" rx="0.46"/>
<path fill="#ffffff" d="
  M 70.48 89.49
  L 67.06 89.48
  Q 66.65 89.48 66.69 89.07
  Q 66.71 88.89 66.73 88.70
  A 0.30 0.30 0.0 0 1 67.03 88.43
  L 71.72 88.37
  Q 72.23 88.37 72.30 88.88
  C 73.34 96.70 58.84 95.08 62.54 86.59
  C 64.07 83.05 68.41 82.45 71.13 85.10
  Q 71.51 85.47 71.66 85.98
  Q 71.94 86.93 71.14 86.64
  Q 70.82 86.52 70.56 86.29
  C 62.51 78.92 60.40 96.72 69.66 92.19
  Q 70.58 91.74 70.87 89.94
  Q 70.94 89.49 70.48 89.49
  Z"
/>
<path fill="#ffffff" d="
  M 137.18 84.81
  Q 135.76 84.19 134.59 84.97
  A 1.54 1.54 0.0 0 0 134.98 87.72
  L 138.42 88.81
  A 2.18 2.18 0.0 0 1 139.59 92.06
  Q 137.31 95.61 133.47 93.13
  A 0.88 0.87 -60.6 0 1 133.16 92.01
  Q 133.87 90.51 134.26 91.81
  Q 134.39 92.26 134.79 92.50
  Q 136.79 93.72 138.18 92.09
  A 1.46 1.46 0.0 0 0 137.51 89.75
  L 134.10 88.68
  A 2.34 2.34 0.0 0 1 133.14 84.80
  Q 135.69 82.24 138.81 84.40
  A 1.16 0.65 60.2 0 1 138.82 86.27
  Q 138.16 85.94 137.90 85.46
  Q 137.65 85.02 137.18 84.81
  Z"
/>
<path fill="#ffffff" d="
  M 106.43 85.74
  L 108.29 85.85
  A 0.34 0.33 -49.4 0 1 108.34 86.51
  L 106.34 86.96
  A 0.45 0.44 -6.6 0 0 105.99 87.39
  L 106.00 91.91
  A 0.83 0.82 -84.0 0 0 106.65 92.72
  L 107.77 92.97
  A 0.49 0.49 0.0 0 1 107.81 93.92
  C 103.88 95.16 104.62 89.49 104.68 87.49
  A 0.69 0.69 0.0 0 0 104.24 86.82
  L 103.82 86.65
  A 0.38 0.38 0.0 0 1 103.84 85.94
  Q 104.89 85.56 104.66 84.26
  A 0.53 0.53 0.0 0 1 105.50 83.75
  Q 106.18 84.28 106.00 85.19
  Q 105.90 85.71 106.43 85.74
  Z"
/>
<path fill="#ffffff" d="
  M 78.95 91.11
  Q 79.57 92.94 81.50 93.02
  Q 82.01 93.04 82.44 92.77
  L 84.67 91.40
  Q 85.37 90.97 85.08 91.73
  Q 83.82 95.15 80.45 94.01
  C 74.12 91.87 78.94 81.16 85.37 87.81
  A 1.45 1.45 0.0 0 1 84.35 90.26
  L 79.50 90.34
  A 0.59 0.58 -9.7 0 0 78.95 91.11
  Z
  M 79.24 89.26
  L 83.80 89.26
  A 0.22 0.22 0.0 0 0 84.02 89.04
  L 84.02 88.93
  A 2.36 2.17 -0.1 0 0 81.66 86.76
  L 81.38 86.76
  A 2.36 2.17 -0.1 0 0 79.02 88.93
  L 79.02 89.04
  A 0.22 0.22 0.0 0 0 79.24 89.26
  Z"
/>
<path fill="#ffffff" d="
  M 92.97 86.30
  Q 94.44 85.19 96.38 85.93
  C 99.20 87.01 98.29 91.15 98.34 93.46
  Q 98.35 93.98 97.82 93.99
  Q 97.65 93.99 97.47 93.98
  Q 97.00 93.96 97.00 93.49
  L 97.00 88.47
  A 1.69 1.69 0.0 0 0 95.05 86.80
  L 93.26 87.09
  A 0.98 0.96 -4.0 0 0 92.44 88.02
  L 92.28 93.49
  Q 92.27 93.99 91.76 93.99
  Q 91.61 93.99 91.47 93.98
  Q 91.00 93.96 91.00 93.49
  L 91.00 86.30
  Q 91.00 85.89 91.40 85.78
  Q 92.04 85.61 92.22 86.09
  Q 92.46 86.69 92.97 86.30
  Z"
/>
<path fill="#ffffff" d="
  M 150.83 93.50
  C 150.02 94.00 149.06 94.29 148.11 93.99
  C 142.08 92.09 145.64 83.12 151.15 86.35
  Q 151.54 86.58 151.90 86.30
  L 152.68 85.67
  Q 153.31 85.17 153.31 85.98
  L 153.32 93.54
  Q 153.32 94.39 152.56 94.00
  L 151.53 93.47
  Q 151.17 93.28 150.83 93.50
  Z
  M 149.0160 92.9475
  A 3.09 2.85 92.3 0 0 151.9877 89.9744
  A 3.09 2.85 92.3 0 0 149.2640 86.7725
  A 3.09 2.85 92.3 0 0 146.2923 89.7456
  A 3.09 2.85 92.3 0 0 149.0160 92.9475
  Z"
/>
<path fill="#ffffff" d="
  M 174.67 89.89
  A 4.22 4.22 0.0 0 1 170.45 94.11
  A 4.22 4.22 0.0 0 1 166.23 89.89
  A 4.22 4.22 0.0 0 1 170.45 85.67
  A 4.22 4.22 0.0 0 1 174.67 89.89
  Z
  M 173.2091 89.3552
  A 2.52 2.52 0.0 0 0 170.6847 86.8396
  L 170.2447 86.8404
  A 2.52 2.52 0.0 0 0 167.7291 89.3648
  L 167.7309 90.4248
  A 2.52 2.52 0.0 0 0 170.2553 92.9404
  L 170.6953 92.9396
  A 2.52 2.52 0.0 0 0 173.2109 90.4152
  L 173.2091 89.3552
  Z"
/>
<path fill="#ffffff" d="
  M 115.00 88.77
  L 118.42 90.06
  A 1.36 1.35 85.1 0 1 119.10 90.64
  C 121.00 93.92 115.35 95.51 113.38 92.41
  Q 113.05 91.89 113.60 91.64
  L 113.88 91.51
  A 0.40 0.40 0.0 0 1 114.40 91.68
  Q 115.43 93.62 117.56 92.81
  A 1.11 1.11 0.0 0 0 117.23 90.66
  Q 114.90 90.52 113.43 88.84
  A 1.05 1.04 38.0 0 1 113.28 87.69
  Q 114.96 84.26 118.40 86.34
  Q 119.51 87.01 119.16 88.07
  A 0.42 0.42 0.0 0 1 118.46 88.22
  C 117.80 87.52 117.33 86.79 116.32 86.71
  Q 115.04 86.62 114.59 87.89
  A 0.70 0.70 0.0 0 0 115.00 88.77
  Z"
/>
<path fill="#ffffff" d="
  M 182.47 86.06
  Q 184.85 85.03 186.79 86.76
  A 1.59 1.58 17.0 0 1 187.31 87.73
  Q 187.66 90.38 187.50 93.06
  Q 187.46 93.66 187.20 93.87
  Q 186.98 94.05 186.65 93.98
  Q 186.14 93.87 186.16 93.35
  Q 186.24 91.30 186.25 89.26
  C 186.26 86.20 181.77 85.58 181.55 89.55
  Q 181.44 91.49 181.48 93.43
  Q 181.49 93.99 180.94 93.95
  L 180.54 93.93
  Q 180.17 93.91 180.17 93.54
  L 180.16 86.33
  Q 180.15 85.50 180.92 85.83
  L 181.45 86.06
  Q 181.96 86.28 182.47 86.06
  Z"
/>
</svg>
